HIERARCHY
ROOT Hips
{
	OFFSET 0.000000 0.000000 0.000000
	CHANNELS 6 Xposition Yposition Zposition Zrotation Yrotation Xrotation 
	JOINT LHipJoint
	{
		OFFSET 0.000000 0.000000 0.000000
		CHANNELS 3 Zrotation Yrotation Xrotation
		JOINT LeftUpLeg
		{
			OFFSET 1.363060 -1.794630 0.839290
			CHANNELS 3 Zrotation Yrotation Xrotation
			JOINT LeftLeg
			{
				OFFSET 2.448110 -6.726130 0.000000
				CHANNELS 3 Zrotation Yrotation Xrotation
				JOINT LeftFoot
				{
					OFFSET 2.562200 -7.039590 0.000000
					CHANNELS 3 Zrotation Yrotation Xrotation
					JOINT LeftToeBase
					{
						OFFSET 0.157640 -0.433110 2.322550
						CHANNELS 3 Zrotation Yrotation Xrotation
						End Site
						{
							OFFSET 0.000000 0.000000 0.000000
						}
					}
				}
			}
		}
	}
	JOINT RHipJoint
	{
		OFFSET 0.000000 0.000000 0.000000
		CHANNELS 3 Zrotation Yrotation Xrotation
		JOINT RightUpLeg
		{
			OFFSET -1.305520 -1.794630 0.839290
			CHANNELS 3 Zrotation Yrotation Xrotation
			JOINT RightLeg
			{
				OFFSET -2.542530 -6.985550 0.000000
				CHANNELS 3 Zrotation Yrotation Xrotation
				JOINT RightFoot
				{
					OFFSET -2.568260 -7.056230 0.000000
					CHANNELS 3 Zrotation Yrotation Xrotation
					JOINT RightToeBase
					{
						OFFSET -0.164730 -0.452590 2.363150
						CHANNELS 3 Zrotation Yrotation Xrotation
						End Site
						{
							OFFSET 0.000000 0.000000 0.000000
						}
					}
				}
			}
		}
	}
	JOINT LowerBack
	{
		OFFSET 0.000000 0.000000 0.000000
		CHANNELS 3 Zrotation Yrotation Xrotation
		JOINT Spine
		{
			OFFSET 0.028270 2.035590 -0.193380
			CHANNELS 3 Zrotation Yrotation Xrotation
			JOINT Spine1
			{
				OFFSET 0.056720 2.048850 -0.042750
				CHANNELS 3 Zrotation Yrotation Xrotation
				JOINT Neck
				{
					OFFSET 0.000000 0.000000 0.000000
					CHANNELS 3 Zrotation Yrotation Xrotation
					JOINT Neck1
					{
						OFFSET -0.054170 1.746240 0.172020
						CHANNELS 3 Zrotation Yrotation Xrotation
						JOINT Head
						{
							OFFSET 0.104070 1.761360 -0.123970
							CHANNELS 3 Zrotation Yrotation Xrotation
							End Site
							{
								OFFSET 0.000000 0.000000 0.000000
							}
						}
					}
				}
				JOINT LeftShoulder
				{
					OFFSET 0.000000 0.000000 0.000000
					CHANNELS 3 Zrotation Yrotation Xrotation
					JOINT LeftArm
					{
						OFFSET 3.362410 1.200890 -0.311210
						CHANNELS 3 Zrotation Yrotation Xrotation
						JOINT LeftForeArm
						{
							OFFSET 4.983000 -0.000000 -0.000000
							CHANNELS 3 Zrotation Yrotation Xrotation
							JOINT LeftHand
							{
								OFFSET 3.483560 -0.000000 -0.000000
								CHANNELS 3 Zrotation Yrotation Xrotation
								JOINT LeftFingerBase
								{
									OFFSET 0.000000 0.000000 0.000000
									CHANNELS 3 Zrotation Yrotation Xrotation
									JOINT LeftHandIndex1
									{
										OFFSET 0.715260 -0.000000 -0.000000
										CHANNELS 3 Zrotation Yrotation Xrotation
										End Site
										{
											OFFSET 0.000000 0.000000 0.000000
										}
									}
								}
								JOINT LThumb
								{
									OFFSET 0.000000 0.000000 0.000000
									CHANNELS 3 Zrotation Yrotation Xrotation
									End Site
									{
										OFFSET 0.000000 0.000000 0.000000
									}
								}
							}
						}
					}
				}
				JOINT RightShoulder
				{
					OFFSET 0.000000 0.000000 0.000000
					CHANNELS 3 Zrotation Yrotation Xrotation
					JOINT RightArm
					{
						OFFSET -3.136600 1.374050 -0.404650
						CHANNELS 3 Zrotation Yrotation Xrotation
						JOINT RightForeArm
						{
							OFFSET -5.241900 -0.000000 -0.000000
							CHANNELS 3 Zrotation Yrotation Xrotation
							JOINT RightHand
							{
								OFFSET -3.444170 -0.000000 -0.000000
								CHANNELS 3 Zrotation Yrotation Xrotation
								JOINT RightFingerBase
								{
									OFFSET 0.000000 0.000000 0.000000
									CHANNELS 3 Zrotation Yrotation Xrotation
									JOINT RightHandIndex1
									{
										OFFSET -0.622530 -0.000000 -0.000000
										CHANNELS 3 Zrotation Yrotation Xrotation
										End Site
										{
											OFFSET 0.000000 0.000000 0.000000
										}
									}
								}
								JOINT RThumb
								{
									OFFSET 0.000000 0.000000 0.000000
									CHANNELS 3 Zrotation Yrotation Xrotation
									End Site
									{
										OFFSET 0.000000 0.000000 0.000000
									}
								}
							}
						}
					}
				}
			}
		}
	}
}
MOTION
Frames: 6
Frame Time: 0.008333
8.295225 14.754775 -11.108063 174.211779 18.717608 -178.247820 -3.317618 14.365209 6.298427 -11.260958 -17.480905 -61.324103 9.641049 15.282712 71.295902 -0.887488 6.787322 1.344163 2.822917 2.184340 -20.655594 1.741721 -12.149343 5.053249 18.136383 17.474098 -37.205265 -16.209187 -13.096121 65.925332 -23.278323 -11.084765 -25.653142 -7.050652 3.692601 -20.563317 -1.954007 -5.357774 3.080762 1.698793 1.296992 -1.940378 -2.446727 0.082156 20.914822 -2.538425 0.686518 -22.316711 0.549876 0.471059 4.742151 3.533446 -4.990164 8.961957 1.092418 20.067187 1.151898 -75.105344 -11.509117 2.309211 -7.028415 -33.068230 30.399448 -10.219550 -32.684586 7.934615 0.000001 -0.000001 -0.000001 -0.000000 0.000000 0.000000 -0.000000 0.000000 -0.000000 -6.976021 8.775148 14.520595 66.607305 70.945312 -6.811030 11.072236 38.011267 20.413996 -1.680751 23.391299 2.944850 0.000002 0.000001 -0.000002 -0.000000 -0.000000 -0.000000 -0.000000 -0.000000 -0.000000 
8.334054 14.785060 -11.509264 173.742492 18.358965 -178.581408 -3.204727 15.278249 6.802628 -11.832335 -18.673520 -61.369278 7.367754 14.323804 65.411295 -1.313944 6.940930 2.140654 4.093419 -1.057173 -19.884427 1.308981 -12.669842 5.291223 18.360367 16.411656 -35.351276 -17.757695 -12.831791 65.022395 -23.104362 -9.927091 -26.667945 -6.454059 2.677992 -22.078779 -1.987580 -5.527348 2.494503 1.410339 1.541958 -1.788718 -2.971429 0.838946 20.315121 -2.424286 0.603925 -21.633726 0.492292 0.345561 5.160539 4.343232 -5.569815 9.032309 1.527532 19.551129 0.061872 -74.710809 -7.164534 4.153737 -6.039867 -34.509492 29.525871 -10.774504 -31.997942 7.936985 0.000001 -0.000001 -0.000001 0.000000 -0.000000 -0.000000 -0.000000 0.000000 0.000000 -6.807740 9.079810 14.895499 66.222212 71.577733 -5.039963 10.280315 41.053280 20.497889 -1.939555 23.279002 2.874405 0.000002 0.000001 -0.000002 -0.000000 -0.000000 0.000000 -0.000000 -0.000000 -0.000000 
8.366246 14.829489 -11.904880 173.529649 18.042401 -178.733104 -3.239543 15.763258 6.983510 -12.701991 -18.919349 -60.962408 8.681532 14.586836 58.420625 -6.188879 4.645245 5.057048 -0.339895 9.538245 -25.976504 1.442504 -12.675211 5.302319 18.065885 14.803812 -33.534553 -18.459152 -12.440094 63.952298 -22.795143 -9.401275 -27.452249 -6.279830 2.162764 -23.446500 -1.681556 -5.699830 1.896708 1.078533 1.955228 -1.597774 -3.349248 1.409981 19.609424 -2.542961 0.588498 -20.933535 0.374740 0.308699 5.552566 5.640953 -6.264285 9.191241 1.421002 19.043455 -0.887559 -73.954652 -3.104576 5.922322 -4.957782 -35.874032 28.866218 -11.042725 -31.715527 7.951512 0.000001 -0.000001 -0.000001 0.000000 0.000000 -0.000000 0.000000 0.000000 -0.000000 -6.586665 9.681307 15.017036 65.154969 71.941719 -3.738834 8.748993 43.866241 20.766156 -3.074082 24.384160 2.739216 0.000002 0.000001 -0.000002 0.000000 -0.000000 0.000000 -0.000000 0.000000 -0.000000 
8.403679 14.871351 -12.324865 173.537661 17.305090 -178.612139 -2.789144 16.619496 7.351434 -14.407924 -19.785057 -60.189327 9.794666 14.803931 51.622599 -10.880973 2.053671 7.929859 -4.309423 20.035667 -30.724447 1.374726 -12.804383 5.345251 18.046632 13.373529 -31.948245 -18.575450 -11.916699 63.491049 -21.921846 -8.143202 -26.991159 -6.910532 2.356885 -25.145349 -1.720220 -5.961144 1.156059 1.036384 2.206926 -1.539685 -3.668451 1.923981 18.983316 -2.309962 0.387814 -20.522003 0.081425 0.089731 6.152485 5.609445 -6.915474 9.218716 1.907272 18.582379 -1.863646 -73.756273 1.066791 7.552617 -3.803621 -37.230111 28.683323 -11.259081 -32.029163 8.099675 0.000001 -0.000001 -0.000001 -0.000000 0.000000 -0.000000 0.000000 0.000000 0.000000 -6.276397 9.872383 14.981733 64.617486 71.645953 -1.757944 7.331449 46.345326 20.675785 -4.890165 25.404079 2.432459 0.000002 0.000001 -0.000002 -0.000000 0.000000 0.000000 0.000000 0.000000 0.000000 
8.440495 14.912568 -12.759159 173.481894 16.384439 -178.734594 -2.123994 17.790561 8.084947 -15.871587 -21.386027 -58.765594 6.212490 12.016482 45.216577 -10.414149 2.953749 8.810519 -0.067949 8.189873 -20.221191 1.096513 -13.301416 5.417848 18.134761 12.100182 -30.050222 -18.457840 -11.254191 63.165082 -20.439990 -6.294423 -25.893643 -6.166986 1.465111 -25.903797 -2.055482 -6.257801 0.643443 1.108621 2.280106 -1.524869 -3.721322 2.099850 18.370993 -2.259314 0.215808 -20.225047 -0.296806 -0.059949 6.852524 5.366264 -7.566726 9.923878 2.220371 18.490970 -2.695263 -73.682450 5.161038 8.761169 -2.864294 -38.547383 27.591617 -11.868935 -31.333379 8.108961 0.000001 -0.000001 -0.000001 0.000000 0.000000 0.000000 -0.000000 0.000000 0.000000 -6.315034 10.250172 14.748659 64.337583 70.911612 0.660769 5.632577 48.733254 20.148975 -5.792660 25.537198 2.224273 0.000002 0.000001 -0.000002 0.000000 -0.000000 0.000000 0.000000 0.000000 -0.000000 
8.464204 14.954144 -13.197447 173.468203 15.398296 -179.049942 -1.646063 19.025948 8.560506 -17.585961 -22.653419 -56.379616 3.687892 9.141352 38.085050 -10.697500 3.602980 11.308076 2.778289 -3.037802 -10.198985 0.687022 -13.763994 5.616620 17.936708 11.235369 -27.811848 -18.123310 -11.273207 62.595803 -17.930626 -4.241272 -24.658801 -4.357933 -0.380425 -26.635733 -2.150901 -6.523800 0.350011 1.057144 2.382322 -1.506827 -3.830489 2.300697 17.376322 -2.315306 0.305393 -19.602783 -0.685207 0.016950 7.657122 6.539822 -7.990541 10.047003 2.605437 18.141222 -3.498778 -73.426696 9.593846 10.301806 -1.644616 -39.828710 26.693581 -12.026364 -30.958049 8.059287 0.000001 -0.000001 -0.000001 0.000000 -0.000000 -0.000000 -0.000000 -0.000000 -0.000000 -6.267976 10.716174 14.498039 64.070914 69.776927 2.982588 3.501224 51.001989 19.675520 -7.514832 26.459769 1.874118 0.000002 0.000001 -0.000002 0.000000 -0.000000 0.000000 0.000000 0.000000 -0.000000 
